<svg xmlns="http://www.w3.org/2000/svg" viewBox="100.0 114.4 1689.3 1365.4" width="1689" height="1365">
<path fill-rule="nonzero" fill="rgb(94.0%, 94.0%, 93.9%)" fill-opacity="1" d="M 1719.1 354.2 L 1412.8 171.9 L 1335.5 218.1 L 1630.4 382.7 L 1719.1 354.2 "/>
<path fill-rule="nonzero" fill="rgb(94.0%, 94.0%, 93.9%)" fill-opacity="1" d="M 1320.1 167.3 L 1154.7 268.9 L 1154.7 663.7 L 1227.5 621.6 C 1235.6 565.5 1269.9 507.0 1310.9 483.3 C 1352.0 459.6 1386.3 478.5 1394.4 525.3 L 1448.7 494.0 L 1448.7 241.6 C 1448.7 175.6 1377.2 134.4 1320.1 167.3 "/>
<path fill-rule="nonzero" fill="rgb(13.9%, 13.3%, 13.1%)" fill-opacity="1" d="M 1707.2 720.4 L 1658.9 691.3 L 1613.5 668.1 L 1654.7 654.2 C 1657.2 652.7 1719.7 675.0 1707.2 720.4 "/>
<path fill-rule="nonzero" fill="rgb(17.2%, 16.6%, 16.6%)" fill-opacity="1" d="M 1648.7 723.1 C 1648.7 769.5 1620.6 823.3 1585.8 843.3 C 1551.1 863.4 1522.9 842.1 1522.9 795.8 C 1522.9 749.5 1551.1 695.7 1585.8 675.6 C 1620.6 655.6 1648.7 676.9 1648.7 723.1 "/>
<path fill-rule="nonzero" fill="rgb(17.2%, 16.6%, 16.6%)" fill-opacity="1" d="M 1592.3 873.1 L 1546.8 847.5 L 1628.0 673.0 L 1671.6 697.4 L 1592.3 873.1 "/>
<path fill-rule="nonzero" fill="rgb(26.1%, 25.9%, 26.6%)" fill-opacity="1" d="M 1696.0 749.5 C 1696.0 795.8 1667.9 849.6 1633.1 869.6 C 1598.3 889.7 1570.2 868.4 1570.2 822.1 C 1570.2 775.8 1598.3 722.0 1633.1 701.9 C 1667.9 681.9 1696.0 703.2 1696.0 749.5 "/>
<path fill-rule="nonzero" fill="rgb(57.1%, 57.4%, 57.3%)" fill-opacity="1" d="M 1673.9 763.8 C 1673.9 793.8 1655.6 828.6 1633.1 841.6 C 1610.6 854.6 1592.3 840.8 1592.3 810.8 C 1592.3 780.8 1610.6 745.9 1633.1 732.9 C 1655.6 719.9 1673.9 733.7 1673.9 763.8 "/>
<path fill-rule="nonzero" fill="rgb(100%, 100%, 100%)" fill-opacity="1" d="M 1662.3 770.4 C 1662.3 791.9 1649.2 816.9 1633.1 826.3 C 1616.9 835.6 1603.8 825.7 1603.8 804.2 C 1603.8 782.6 1616.9 757.6 1633.1 748.3 C 1649.2 739.0 1662.3 748.9 1662.3 770.4 "/>
<path fill-rule="nonzero" fill="rgb(19.8%, 19.4%, 19.6%)" fill-opacity="1" d="M 1647.2 779.1 C 1647.2 789.6 1640.9 801.6 1633.1 806.2 C 1625.3 810.6 1618.9 805.9 1618.9 795.4 C 1618.9 785.1 1625.3 772.9 1633.1 768.4 C 1640.9 763.9 1647.2 768.7 1647.2 779.1 "/>
<path fill-rule="nonzero" fill="rgb(19.8%, 19.4%, 19.6%)" fill-opacity="1" d="M 1635.8 756.5 L 1633.1 761.7 L 1630.4 759.6 L 1633.1 754.5 L 1635.8 756.5 "/>
<path fill-rule="nonzero" fill="rgb(19.8%, 19.4%, 19.6%)" fill-opacity="1" d="M 1654.1 756.5 L 1651.4 761.7 L 1648.7 759.6 L 1651.4 754.5 L 1654.1 756.5 "/>
<path fill-rule="nonzero" fill="rgb(19.8%, 19.4%, 19.6%)" fill-opacity="1" d="M 1618.9 776.8 L 1616.2 782.0 L 1613.5 779.9 L 1616.2 774.8 L 1618.9 776.8 "/>
<path fill-rule="nonzero" fill="rgb(19.8%, 19.4%, 19.6%)" fill-opacity="1" d="M 1654.1 794.6 L 1651.4 799.8 L 1648.7 797.7 L 1651.4 792.6 L 1654.1 794.6 "/>
<path fill-rule="nonzero" fill="rgb(19.8%, 19.4%, 19.6%)" fill-opacity="1" d="M 1618.9 814.9 L 1616.2 820.1 L 1613.5 818.0 L 1616.2 812.8 L 1618.9 814.9 "/>
<path fill-rule="nonzero" fill="rgb(19.8%, 19.4%, 19.6%)" fill-opacity="1" d="M 1658.5 774.1 L 1655.8 779.2 L 1653.1 777.2 L 1655.8 772.0 L 1658.5 774.1 "/>
<path fill-rule="nonzero" fill="rgb(19.8%, 19.4%, 19.6%)" fill-opacity="1" d="M 1613.5 800 L 1610.8 805.2 L 1608.1 803.1 L 1610.8 798.0 L 1613.5 800 "/>
<path fill-rule="nonzero" fill="rgb(19.8%, 19.4%, 19.6%)" fill-opacity="1" d="M 1635.8 814.9 L 1633.1 820.1 L 1630.4 818.0 L 1633.1 812.8 L 1635.8 814.9 "/>
<path fill-rule="nonzero" fill="rgb(38.9%, 39.5%, 40.2%)" fill-opacity="1" d="M 1211.8 865.0 L 1436.1 736.8 L 1561.9 809.4 L 1336.6 938.5 L 1211.8 865.0 "/>
<path fill-rule="nonzero" fill="rgb(32.7%, 32.9%, 33.8%)" fill-opacity="1" d="M 1561.9 809.4 L 1335.5 938.9 L 1335.5 1000.3 L 1561.9 870.9 L 1561.9 809.4 "/>
<path fill-rule="nonzero" fill="rgb(53.0%, 53.4%, 53.5%)" fill-opacity="1" d="M 1547.4 862.5 L 1424.3 933.2 L 1424.3 940.1 L 1547.4 869.5 L 1547.4 862.5 "/>
<path fill-rule="nonzero" fill="rgb(53.0%, 53.4%, 53.5%)" fill-opacity="1" d="M 1547.4 847.3 L 1424.3 918.0 L 1424.3 924.9 L 1547.4 854.3 L 1547.4 847.3 "/>
<path fill-rule="nonzero" fill="rgb(94.0%, 94.0%, 93.9%)" fill-opacity="1" d="M 1476.0 460.9 L 1640.1 362.4 L 1311.4 172.7 L 1149.5 272.3 L 1476.0 460.9 "/>
<path fill-rule="nonzero" fill="rgb(47.8%, 48.3%, 49.3%)" fill-opacity="1" d="M 1209.6 278.1 C 1209.6 278.1 1306.9 218.7 1341.9 198.4 C 1361.5 187.0 1383.6 177.5 1383.6 177.5 C 1383.6 177.5 1379.9 147.9 1335.6 157.7 C 1287.0 168.4 1209.6 201.5 1209.6 201.5 L 1209.6 278.1 "/>
<path fill-rule="nonzero" fill="rgb(94.0%, 94.0%, 93.9%)" fill-opacity="1" d="M 1632.2 312.9 L 1372.6 161.1 L 1225.0 210.4 L 1478.6 382.7 L 1632.2 312.9 "/>
<path fill-rule="nonzero" fill="rgb(54.8%, 55.1%, 55.5%)" fill-opacity="1" d="M 1476.0 854.3 L 1335.5 779.6 L 1335.5 377.8 L 1476.0 458.9 L 1476.0 854.3 "/>
<path fill-rule="nonzero" fill="rgb(54.8%, 55.1%, 55.5%)" fill-opacity="1" d="M 1478.6 434 L 1209.6 284.6 L 1209.6 201.5 L 1478.6 357.4 L 1478.6 434 "/>
<path fill-rule="nonzero" fill="rgb(17.2%, 16.6%, 16.6%)" fill-opacity="1" d="M 780.5 1171.4 L 849.6 1211.4 L 849.6 1282.2 L 780.5 1242.3 L 780.5 1171.4 "/>
<path fill-rule="nonzero" fill="rgb(17.2%, 16.6%, 16.6%)" fill-opacity="1" d="M 1368.3 885.7 C 1368.3 932.0 1340.1 985.8 1305.4 1005.8 C 1270.6 1025.9 1242.5 1004.6 1242.5 958.3 C 1242.5 912 1270.6 858.2 1305.4 838.1 C 1340.1 818.1 1368.3 839.4 1368.3 885.7 "/>
<path fill-rule="nonzero" fill="rgb(17.2%, 16.6%, 16.6%)" fill-opacity="1" d="M 1311.9 1035.7 L 1266.3 1010.1 L 1347.6 835.5 L 1391.2 859.9 L 1311.9 1035.7 "/>
<path fill-rule="nonzero" fill="rgb(26.1%, 25.9%, 26.6%)" fill-opacity="1" d="M 1415.5 912.0 C 1415.5 958.3 1387.4 1012.1 1352.6 1032.2 C 1317.9 1052.2 1289.7 1030.9 1289.7 984.6 C 1289.7 938.3 1317.9 884.5 1352.6 864.5 C 1387.4 844.4 1415.5 865.7 1415.5 912.0 "/>
<path fill-rule="nonzero" fill="rgb(57.1%, 57.4%, 57.3%)" fill-opacity="1" d="M 1393.4 926.3 C 1393.4 956.3 1375.2 991.1 1352.6 1004.1 C 1330.1 1017.1 1311.9 1003.4 1311.9 973.3 C 1311.9 943.3 1330.1 908.4 1352.6 895.4 C 1375.2 882.5 1393.4 896.2 1393.4 926.3 "/>
<path fill-rule="nonzero" fill="rgb(100%, 100%, 100%)" fill-opacity="1" d="M 1381.9 932.9 C 1381.9 954.5 1368.8 979.5 1352.6 988.8 C 1336.5 998.1 1323.4 988.3 1323.4 966.7 C 1323.4 945.2 1336.5 920.1 1352.6 910.8 C 1368.8 901.5 1381.9 911.4 1381.9 932.9 "/>
<path fill-rule="nonzero" fill="rgb(19.8%, 19.4%, 19.6%)" fill-opacity="1" d="M 1366.8 941.6 C 1366.8 952.1 1360.4 964.1 1352.6 968.7 C 1344.8 973.2 1338.5 968.4 1338.5 958.0 C 1338.5 947.5 1344.8 935.4 1352.6 930.9 C 1360.4 926.5 1366.8 931.2 1366.8 941.6 "/>
<path fill-rule="nonzero" fill="rgb(19.8%, 19.4%, 19.6%)" fill-opacity="1" d="M 1355.3 919.1 L 1352.6 924.2 L 1349.9 922.2 L 1352.6 917.0 L 1355.3 919.1 "/>
<path fill-rule="nonzero" fill="rgb(19.8%, 19.4%, 19.6%)" fill-opacity="1" d="M 1373.7 919.1 L 1371.0 924.2 L 1368.2 922.2 L 1371.0 917.0 L 1373.7 919.1 "/>
<path fill-rule="nonzero" fill="rgb(19.8%, 19.4%, 19.6%)" fill-opacity="1" d="M 1338.5 939.3 L 1335.8 944.5 L 1333.1 942.5 L 1335.8 937.3 L 1338.5 939.3 "/>
<path fill-rule="nonzero" fill="rgb(19.8%, 19.4%, 19.6%)" fill-opacity="1" d="M 1373.7 957.1 L 1371.0 962.3 L 1368.2 960.2 L 1371.0 955.1 L 1373.7 957.1 "/>
<path fill-rule="nonzero" fill="rgb(19.8%, 19.4%, 19.6%)" fill-opacity="1" d="M 1338.5 977.4 L 1335.8 982.6 L 1333.1 980.5 L 1335.8 975.4 L 1338.5 977.4 "/>
<path fill-rule="nonzero" fill="rgb(19.8%, 19.4%, 19.6%)" fill-opacity="1" d="M 1378.1 936.6 L 1375.4 941.8 L 1372.6 939.7 L 1375.4 934.6 L 1378.1 936.6 "/>
<path fill-rule="nonzero" fill="rgb(19.8%, 19.4%, 19.6%)" fill-opacity="1" d="M 1333.1 962.5 L 1330.4 967.7 L 1327.6 965.7 L 1330.4 960.5 L 1333.1 962.5 "/>
<path fill-rule="nonzero" fill="rgb(19.8%, 19.4%, 19.6%)" fill-opacity="1" d="M 1355.3 977.4 L 1352.6 982.6 L 1349.9 980.5 L 1352.6 975.4 L 1355.3 977.4 "/>
<path fill-rule="nonzero" fill="rgb(17.2%, 16.6%, 16.6%)" fill-opacity="1" d="M 1220.6 972.1 C 1220.6 1018.4 1192.5 1072.2 1157.7 1092.3 C 1123.0 1112.4 1094.9 1091.1 1094.9 1044.8 C 1094.9 998.4 1123.0 944.6 1157.7 924.6 C 1192.5 904.5 1220.6 925.8 1220.6 972.1 "/>
<path fill-rule="nonzero" fill="rgb(17.2%, 16.6%, 16.6%)" fill-opacity="1" d="M 1164.2 1122.1 L 1118.7 1096.5 L 1200.0 921.9 L 1243.6 946.3 L 1164.2 1122.1 "/>
<path fill-rule="nonzero" fill="rgb(26.1%, 25.9%, 26.6%)" fill-opacity="1" d="M 1267.9 998.5 C 1267.9 1044.8 1239.8 1098.6 1205 1118.6 C 1170.3 1138.7 1142.1 1117.4 1142.1 1071.1 C 1142.1 1024.8 1170.3 971 1205 950.9 C 1239.8 930.9 1267.9 952.1 1267.9 998.5 "/>
<path fill-rule="nonzero" fill="rgb(57.1%, 57.4%, 57.3%)" fill-opacity="1" d="M 1245.8 1012.7 C 1245.8 1042.7 1227.5 1077.6 1205 1090.6 C 1182.5 1103.6 1164.2 1089.8 1164.2 1059.8 C 1164.2 1029.8 1182.5 994.9 1205 981.9 C 1227.5 968.9 1245.8 982.7 1245.8 1012.7 "/>
<path fill-rule="nonzero" fill="rgb(100%, 100%, 100%)" fill-opacity="1" d="M 1234.3 1019.4 C 1234.3 1040.9 1221.2 1065.9 1205.0 1075.2 C 1188.9 1084.6 1175.8 1074.7 1175.8 1053.1 C 1175.8 1031.6 1188.9 1006.6 1205.0 997.2 C 1221.2 987.9 1234.3 997.8 1234.3 1019.4 "/>
<path fill-rule="nonzero" fill="rgb(19.8%, 19.4%, 19.6%)" fill-opacity="1" d="M 1219.2 1028.1 C 1219.2 1038.5 1212.8 1050.6 1205 1055.1 C 1197.2 1059.6 1190.9 1054.8 1190.9 1044.4 C 1190.9 1034 1197.2 1021.9 1205 1017.4 C 1212.8 1012.9 1219.2 1017.7 1219.2 1028.1 "/>
<path fill-rule="nonzero" fill="rgb(19.8%, 19.4%, 19.6%)" fill-opacity="1" d="M 1207.7 1005.5 L 1205 1010.7 L 1202.3 1008.7 L 1205 1003.4 L 1207.7 1005.5 "/>
<path fill-rule="nonzero" fill="rgb(19.8%, 19.4%, 19.6%)" fill-opacity="1" d="M 1226.1 1005.5 L 1223.3 1010.7 L 1220.6 1008.7 L 1223.3 1003.4 L 1226.1 1005.5 "/>
<path fill-rule="nonzero" fill="rgb(19.8%, 19.4%, 19.6%)" fill-opacity="1" d="M 1190.9 1025.8 L 1188.1 1031.0 L 1185.4 1028.9 L 1188.1 1023.7 L 1190.9 1025.8 "/>
<path fill-rule="nonzero" fill="rgb(19.8%, 19.4%, 19.6%)" fill-opacity="1" d="M 1226.1 1043.6 L 1223.3 1048.8 L 1220.6 1046.7 L 1223.3 1041.5 L 1226.1 1043.6 "/>
<path fill-rule="nonzero" fill="rgb(19.8%, 19.4%, 19.6%)" fill-opacity="1" d="M 1190.9 1063.9 L 1188.1 1069.0 L 1185.4 1067.0 L 1188.1 1061.8 L 1190.9 1063.9 "/>
<path fill-rule="nonzero" fill="rgb(19.8%, 19.4%, 19.6%)" fill-opacity="1" d="M 1230.4 1023.1 L 1227.8 1028.2 L 1225.0 1026.2 L 1227.8 1021 L 1230.4 1023.1 "/>
<path fill-rule="nonzero" fill="rgb(19.8%, 19.4%, 19.6%)" fill-opacity="1" d="M 1185.5 1049.0 L 1182.7 1054.1 L 1180.0 1052.1 L 1182.7 1046.9 L 1185.5 1049.0 "/>
<path fill-rule="nonzero" fill="rgb(19.8%, 19.4%, 19.6%)" fill-opacity="1" d="M 1207.7 1063.9 L 1205 1069.0 L 1202.3 1067.0 L 1205 1061.8 L 1207.7 1063.9 "/>
<path fill-rule="nonzero" fill="rgb(38.9%, 39.5%, 40.2%)" fill-opacity="1" d="M 723.8 1148.6 L 1002.0 983.7 L 1127.8 1056.4 L 849.6 1221.2 L 723.8 1148.6 "/>
<path fill-rule="nonzero" fill="rgb(32.7%, 32.9%, 33.8%)" fill-opacity="1" d="M 849.7 1220.8 L 849.7 1282.2 L 1127.8 1117.8 L 1127.8 1056.3 L 849.7 1220.8 "/>
<path fill-rule="nonzero" fill="rgb(53.0%, 53.4%, 53.5%)" fill-opacity="1" d="M 849.7 1264.4 L 849.7 1271.4 L 1116.2 1115.1 L 1116.2 1108.1 L 849.7 1264.4 "/>
<path fill-rule="nonzero" fill="rgb(53.0%, 53.4%, 53.5%)" fill-opacity="1" d="M 849.7 1249.2 L 849.7 1256.1 L 1116.2 1099.9 L 1116.2 1092.9 L 849.7 1249.2 "/>
<path fill-rule="nonzero" fill="rgb(17.2%, 16.6%, 16.6%)" fill-opacity="1" d="M 791.6 1217.5 C 791.6 1263.8 763.5 1317.6 728.7 1337.7 C 694.0 1357.7 665.9 1336.4 665.9 1290.1 C 665.9 1243.8 694.0 1190.0 728.7 1169.9 C 763.5 1149.9 791.6 1171.2 791.6 1217.5 "/>
<path fill-rule="nonzero" fill="rgb(17.2%, 16.6%, 16.6%)" fill-opacity="1" d="M 735.2 1367.5 L 689.7 1341.9 L 770.9 1167.3 L 814.5 1191.6 L 735.2 1367.5 "/>
<path fill-rule="nonzero" fill="rgb(26.1%, 25.9%, 26.6%)" fill-opacity="1" d="M 838.9 1243.8 C 838.9 1290.1 810.7 1343.9 776.0 1364.0 C 741.3 1384.1 713.1 1362.8 713.1 1316.4 C 713.1 1270.1 741.3 1216.3 776.0 1196.3 C 810.7 1176.2 838.9 1197.5 838.9 1243.8 "/>
<path fill-rule="nonzero" fill="rgb(57.1%, 57.4%, 57.3%)" fill-opacity="1" d="M 816.8 1258.1 C 816.8 1288.1 798.5 1323.0 776.0 1336.0 C 753.5 1349.0 735.2 1335.2 735.2 1305.2 C 735.2 1275.1 753.5 1240.3 776.0 1227.3 C 798.5 1214.3 816.8 1228.1 816.8 1258.1 "/>
<path fill-rule="nonzero" fill="rgb(100%, 100%, 100%)" fill-opacity="1" d="M 805.2 1264.7 C 805.2 1286.2 792.2 1311.3 776.0 1320.6 C 759.8 1329.9 746.7 1320.1 746.7 1298.5 C 746.7 1276.9 759.8 1251.9 776.0 1242.6 C 792.2 1233.3 805.2 1243.2 805.2 1264.7 "/>
<path fill-rule="nonzero" fill="rgb(19.8%, 19.4%, 19.6%)" fill-opacity="1" d="M 790.1 1273.4 C 790.1 1283.9 783.8 1296.0 776.0 1300.5 C 768.2 1304.9 761.8 1300.2 761.8 1289.8 C 761.8 1279.4 768.2 1267.2 776.0 1262.8 C 783.8 1258.2 790.1 1263.1 790.1 1273.4 "/>
<path fill-rule="nonzero" fill="rgb(19.8%, 19.4%, 19.6%)" fill-opacity="1" d="M 778.7 1250.9 L 776.0 1256.0 L 773.3 1254.0 L 776.0 1248.8 L 778.7 1250.9 "/>
<path fill-rule="nonzero" fill="rgb(19.8%, 19.4%, 19.6%)" fill-opacity="1" d="M 797.0 1250.9 L 794.3 1256.0 L 791.6 1254.0 L 794.3 1248.8 L 797.0 1250.9 "/>
<path fill-rule="nonzero" fill="rgb(19.8%, 19.4%, 19.6%)" fill-opacity="1" d="M 761.9 1271.2 L 759.1 1276.3 L 756.4 1274.3 L 759.1 1269.1 L 761.9 1271.2 "/>
<path fill-rule="nonzero" fill="rgb(19.8%, 19.4%, 19.6%)" fill-opacity="1" d="M 797.0 1288.9 L 794.3 1294.1 L 791.6 1292.1 L 794.3 1286.9 L 797.0 1288.9 "/>
<path fill-rule="nonzero" fill="rgb(19.8%, 19.4%, 19.6%)" fill-opacity="1" d="M 761.9 1309.2 L 759.1 1314.4 L 756.4 1312.4 L 759.1 1307.2 L 761.9 1309.2 "/>
<path fill-rule="nonzero" fill="rgb(19.8%, 19.4%, 19.6%)" fill-opacity="1" d="M 801.4 1268.4 L 798.7 1273.6 L 796.0 1271.6 L 798.7 1266.4 L 801.4 1268.4 "/>
<path fill-rule="nonzero" fill="rgb(19.8%, 19.4%, 19.6%)" fill-opacity="1" d="M 756.4 1294.4 L 753.7 1299.5 L 751.0 1297.4 L 753.7 1292.3 L 756.4 1294.4 "/>
<path fill-rule="nonzero" fill="rgb(19.8%, 19.4%, 19.6%)" fill-opacity="1" d="M 778.7 1309.2 L 776.0 1314.4 L 773.3 1312.4 L 776.0 1307.2 L 778.7 1309.2 "/>
<path fill-rule="nonzero" fill="rgb(17.2%, 16.6%, 16.6%)" fill-opacity="1" d="M 660.7 1293.2 C 660.7 1339.5 632.5 1393.3 597.8 1413.4 C 563.1 1433.5 534.9 1412.2 534.9 1365.9 C 534.9 1319.5 563.1 1265.8 597.8 1245.7 C 632.5 1225.6 660.7 1246.9 660.7 1293.2 "/>
<path fill-rule="nonzero" fill="rgb(17.2%, 16.6%, 16.6%)" fill-opacity="1" d="M 604.3 1443.2 L 558.7 1417.6 L 640.0 1243.1 L 683.6 1267.4 L 604.3 1443.2 "/>
<path fill-rule="nonzero" fill="rgb(26.1%, 25.9%, 26.6%)" fill-opacity="1" d="M 707.9 1319.6 C 707.9 1365.9 679.8 1419.6 645.1 1439.7 C 610.3 1459.8 582.2 1438.5 582.2 1392.2 C 582.2 1345.9 610.3 1292.1 645.1 1272 C 679.8 1251.9 707.9 1273.2 707.9 1319.6 "/>
<path fill-rule="nonzero" fill="rgb(57.1%, 57.4%, 57.3%)" fill-opacity="1" d="M 685.8 1333.8 C 685.8 1363.8 667.6 1398.7 645.1 1411.7 C 622.5 1424.7 604.3 1410.9 604.3 1380.9 C 604.3 1350.9 622.5 1316.0 645.1 1303.0 C 667.6 1290 685.8 1303.8 685.8 1333.8 "/>
<path fill-rule="nonzero" fill="rgb(100%, 100%, 100%)" fill-opacity="1" d="M 674.3 1340.4 C 674.3 1362 661.2 1387.0 645.1 1396.3 C 628.9 1405.7 615.8 1395.8 615.8 1374.2 C 615.8 1352.7 628.9 1327.7 645.1 1318.3 C 661.2 1309 674.3 1318.9 674.3 1340.4 "/>
<path fill-rule="nonzero" fill="rgb(19.8%, 19.4%, 19.6%)" fill-opacity="1" d="M 659.2 1349.2 C 659.2 1359.6 652.9 1371.7 645.1 1376.2 C 637.3 1380.7 630.9 1375.9 630.9 1365.5 C 630.9 1355.1 637.3 1343.0 645.1 1338.5 C 652.9 1334 659.2 1338.8 659.2 1349.2 "/>
<path fill-rule="nonzero" fill="rgb(19.8%, 19.4%, 19.6%)" fill-opacity="1" d="M 647.8 1326.6 L 645.1 1331.8 L 642.3 1329.7 L 645.1 1324.5 L 647.8 1326.6 "/>
<path fill-rule="nonzero" fill="rgb(19.8%, 19.4%, 19.6%)" fill-opacity="1" d="M 666.1 1326.6 L 663.4 1331.8 L 660.7 1329.7 L 663.4 1324.5 L 666.1 1326.6 "/>
<path fill-rule="nonzero" fill="rgb(19.8%, 19.4%, 19.6%)" fill-opacity="1" d="M 630.9 1346.9 L 628.2 1352.1 L 625.5 1350.0 L 628.2 1344.8 L 630.9 1346.9 "/>
<path fill-rule="nonzero" fill="rgb(19.8%, 19.4%, 19.6%)" fill-opacity="1" d="M 666.1 1364.7 L 663.4 1369.8 L 660.7 1367.8 L 663.4 1362.6 L 666.1 1364.7 "/>
<path fill-rule="nonzero" fill="rgb(19.8%, 19.4%, 19.6%)" fill-opacity="1" d="M 630.9 1385.0 L 628.2 1390.1 L 625.5 1388.1 L 628.2 1382.9 L 630.9 1385.0 "/>
<path fill-rule="nonzero" fill="rgb(19.8%, 19.4%, 19.6%)" fill-opacity="1" d="M 670.5 1344.1 L 667.8 1349.3 L 665.0 1347.3 L 667.8 1342.1 L 670.5 1344.1 "/>
<path fill-rule="nonzero" fill="rgb(19.8%, 19.4%, 19.6%)" fill-opacity="1" d="M 625.5 1370.1 L 622.8 1375.3 L 620.1 1373.2 L 622.8 1368.0 L 625.5 1370.1 "/>
<path fill-rule="nonzero" fill="rgb(19.8%, 19.4%, 19.6%)" fill-opacity="1" d="M 647.8 1385.0 L 645.1 1390.1 L 642.3 1388.1 L 645.1 1382.9 L 647.8 1385.0 "/>
<path fill-rule="nonzero" fill="rgb(26.1%, 25.9%, 26.6%)" fill-opacity="1" d="M 552.7 1389.6 C 534.3 1380.2 507.5 1366.2 507.5 1366.2 L 561.2 1341.8 L 552.7 1389.6 "/>
<path fill-rule="nonzero" fill="rgb(57.1%, 57.4%, 57.3%)" fill-opacity="1" d="M 639.6 1243.0 L 634.7 1246.0 C 583.9 1276 552.7 1330.6 552.7 1389.6 L 567.8 1380.5 L 568.9 1374.2 C 575.3 1336.9 594.9 1303.2 624.3 1279.3 L 630.9 1273.9 L 639.6 1243.0 "/>
<path fill-rule="nonzero" fill="rgb(94.0%, 94.0%, 93.9%)" fill-opacity="1" d="M 467.7 881.1 L 1408.4 338.3 L 1078.4 147.7 L 137.7 690.5 L 467.7 881.1 "/>
<path fill-rule="nonzero" fill="rgb(80.2%, 79.8%, 79.0%)" fill-opacity="1" d="M 187.0 700.2 L 1094.1 177.4 L 1075.4 167.8 L 168.4 690.5 L 187.0 700.2 "/>
<path fill-rule="nonzero" fill="rgb(80.2%, 79.8%, 79.0%)" fill-opacity="1" d="M 469.4 862.4 L 1376.5 339.6 L 1357.8 330.0 L 450.7 852.8 L 469.4 862.4 "/>
<path fill-rule="nonzero" fill="rgb(17.2%, 16.6%, 16.6%)" fill-opacity="1" d="M 150.6 1200.6 L 150.6 1254.5 L 480.7 1444.9 L 480.7 1391.1 L 150.6 1200.6 "/>
<path fill-rule="nonzero" fill="rgb(26.1%, 25.9%, 26.6%)" fill-opacity="1" d="M 495.8 1382.0 L 480.1 1391.2 L 480.1 1444.9 L 495.8 1435.8 L 495.8 1382.0 "/>
<path fill-rule="nonzero" fill="rgb(94.0%, 94.0%, 93.9%)" fill-opacity="1" d="M 465.0 1426.3 L 443.5 1413.9 L 443.5 1385.3 L 465.0 1397.7 L 465.0 1426.3 "/>
<path fill-rule="nonzero" fill="rgb(53.9%, 54.4%, 54.4%)" fill-opacity="1" d="M 470.8 1394.4 L 465.0 1397.7 L 465.0 1426.3 L 470.8 1423.0 L 470.8 1394.4 "/>
<path fill-rule="nonzero" fill="rgb(93.9%, 19.9%, 45.6%)" fill-opacity="1" d="M 470.8 1394.4 L 449.3 1382.1 L 443.5 1385.4 L 465.0 1397.7 L 470.8 1394.4 "/>
<path fill-rule="nonzero" fill="rgb(94.0%, 94.0%, 93.9%)" fill-opacity="1" d="M 180.9 1256.8 L 159.4 1244.4 L 159.4 1215.8 L 180.9 1228.2 L 180.9 1256.8 "/>
<path fill-rule="nonzero" fill="rgb(53.9%, 54.4%, 54.4%)" fill-opacity="1" d="M 186.7 1224.8 L 180.9 1228.2 L 180.9 1256.8 L 186.7 1253.4 L 186.7 1224.8 "/>
<path fill-rule="nonzero" fill="rgb(93.9%, 19.9%, 45.6%)" fill-opacity="1" d="M 186.7 1224.8 L 165.2 1212.5 L 159.5 1215.8 L 180.9 1228.2 L 186.7 1224.8 "/>
<path fill-rule="nonzero" fill="rgb(80.2%, 79.8%, 79.0%)" fill-opacity="1" d="M 137.6 690.5 L 137.6 1209.3 L 467.6 1399.8 L 467.6 881.1 L 137.6 690.5 "/>
<path fill-rule="nonzero" fill="rgb(26.1%, 25.9%, 26.6%)" fill-opacity="1" d="M 455.9 889.5 L 149.4 711.4 L 149.4 1201.0 L 149.9 1201.3 L 455.9 1024.7 L 455.9 889.5 "/>
<path fill-rule="nonzero" fill="rgb(32.7%, 32.9%, 33.8%)" fill-opacity="1" d="M 455.9 1024.7 L 149.9 1201.2 L 455.9 1378.9 Z M 455.9 1024.7 "/>
<path fill-rule="nonzero" fill="rgb(100%, 100%, 100%)" fill-opacity="1" d="M 1004.7 654.7 L 749.7 801.9 L 711.4 852.1 L 1004.7 682.9 L 1004.7 654.7 "/>
<path fill-rule="nonzero" fill="rgb(100%, 100%, 100%)" fill-opacity="1" d="M 1004.7 605.2 L 811.4 718.8 L 773.0 769.0 L 1004.7 633.3 L 1004.7 605.2 "/>
<path fill-rule="nonzero" fill="rgb(63.1%, 63.1%, 62.8%)" fill-opacity="1" d="M 467.7 880.1 L 467.7 1399.8 L 1408.4 857.1 L 1408.4 337.3 L 467.7 880.1 "/>
<path fill-rule="nonzero" fill="rgb(53.9%, 54.4%, 54.4%)" fill-opacity="1" d="M 521.8 879.8 L 509.6 886.8 L 509.6 1340.8 L 521.8 1333.8 L 521.8 879.8 "/>
<path fill-rule="nonzero" fill="rgb(53.9%, 54.4%, 54.4%)" fill-opacity="1" d="M 576.4 848.2 L 564.2 855.3 L 564.2 1309.3 L 576.4 1302.2 L 576.4 848.2 "/>
<path fill-rule="nonzero" fill="rgb(53.9%, 54.4%, 54.4%)" fill-opacity="1" d="M 763.4 740.0 L 751.2 747.0 L 751.2 1201.0 L 763.4 1194 L 763.4 740.0 "/>
<path fill-rule="nonzero" fill="rgb(53.9%, 54.4%, 54.4%)" fill-opacity="1" d="M 818.0 708.5 L 805.8 715.5 L 805.8 1169.5 L 818.0 1162.5 L 818.0 708.5 "/>
<path fill-rule="nonzero" fill="rgb(53.9%, 54.4%, 54.4%)" fill-opacity="1" d="M 876.3 675.8 L 864.1 682.8 L 864.1 1136.8 L 876.3 1129.8 L 876.3 675.8 "/>
<path fill-rule="nonzero" fill="rgb(53.9%, 54.4%, 54.4%)" fill-opacity="1" d="M 930.9 644.3 L 918.7 651.3 L 918.7 1105.3 L 930.9 1098.3 L 930.9 644.3 "/>
<path fill-rule="nonzero" fill="rgb(53.9%, 54.4%, 54.4%)" fill-opacity="1" d="M 990.2 607.7 L 978.0 614.8 L 978.0 1068.8 L 990.2 1061.8 L 990.2 607.7 "/>
<path fill-rule="nonzero" fill="rgb(53.9%, 54.4%, 54.4%)" fill-opacity="1" d="M 1044.9 576.2 L 1032.7 583.3 L 1032.7 1037.3 L 1044.9 1030.3 L 1044.9 576.2 "/>
<path fill-rule="nonzero" fill="rgb(53.9%, 54.4%, 54.4%)" fill-opacity="1" d="M 1268.6 446.2 L 1256.3 453.3 L 1256.3 907.3 L 1268.6 900.2 L 1268.6 446.2 "/>
<path fill-rule="nonzero" fill="rgb(53.9%, 54.4%, 54.4%)" fill-opacity="1" d="M 1323.2 414.8 L 1310.9 421.8 L 1310.9 875.8 L 1323.2 868.8 L 1323.2 414.8 "/>
<path fill-rule="nonzero" fill="rgb(100%, 100%, 100%)" fill-opacity="1" d="M 1357.7 863.5 L 1379.2 851.1 L 1379.2 822.5 L 1357.7 834.9 L 1357.7 863.5 "/>
<path fill-rule="nonzero" fill="rgb(72.9%, 72.5%, 72.0%)" fill-opacity="1" d="M 1351.9 831.6 L 1357.7 834.9 L 1357.7 863.6 L 1351.9 860.2 L 1351.9 831.6 "/>
<path fill-rule="nonzero" fill="rgb(81.3%, 81.0%, 80.3%)" fill-opacity="1" d="M 1351.9 831.6 L 1373.4 819.3 L 1379.2 822.6 L 1357.7 834.9 L 1351.9 831.6 "/>
<path fill-rule="nonzero" fill="rgb(100%, 100%, 100%)" fill-opacity="1" d="M 654.8 1271.1 L 676.2 1258.7 L 676.2 1230.1 L 654.8 1242.5 L 654.8 1271.1 "/>
<path fill-rule="nonzero" fill="rgb(72.9%, 72.5%, 72.0%)" fill-opacity="1" d="M 649.0 1239.1 L 654.7 1242.5 L 654.7 1271.1 L 649.0 1267.7 L 649.0 1239.1 "/>
<path fill-rule="nonzero" fill="rgb(81.3%, 81.0%, 80.3%)" fill-opacity="1" d="M 649.0 1239.1 L 670.4 1226.8 L 676.2 1230.1 L 654.7 1242.5 L 649.0 1239.1 "/>
<path fill-rule="nonzero" fill="rgb(47.8%, 48.3%, 49.3%)" fill-opacity="1" d="M 1640.7 357.9 L 1475.3 459.5 L 1475.3 854.3 L 1548.1 812.3 C 1556.3 756.0 1590.5 697.6 1631.6 673.9 C 1672.6 650.2 1706.9 669.1 1715.0 715.9 L 1769.3 684.6 L 1769.3 432.2 C 1769.3 366.2 1697.9 325.0 1640.7 357.9 "/>
<path fill-rule="nonzero" fill="rgb(34.9%, 36.3%, 36.9%)" fill-opacity="1" d="M 1597.6 385.2 L 1587.1 391.3 L 1587.1 720.4 L 1597.6 707.5 L 1597.6 385.2 "/>
<path fill-rule="nonzero" fill="rgb(100%, 100%, 100%)" fill-opacity="1" d="M 1631.6 682.4 C 1594.4 703.8 1563.3 756.8 1555.9 807.8 L 1548.1 812.3 C 1556.3 756.1 1590.5 697.6 1631.6 673.9 C 1672.6 650.2 1706.9 669.1 1715.0 715.9 L 1707.2 720.4 C 1699.8 678.0 1668.8 660.9 1631.6 682.4 "/>
<path fill-rule="nonzero" fill="rgb(47.8%, 48.3%, 49.3%)" fill-opacity="1" d="M 1478.6 434 C 1478.6 434 1576.0 374.5 1611.0 354.2 C 1630.6 342.9 1652.7 333.4 1652.7 333.4 C 1652.7 333.4 1649.0 303.8 1604.7 313.6 C 1556.0 324.3 1478.6 357.4 1478.6 357.4 L 1478.6 434 "/>
<path fill-rule="nonzero" fill="rgb(19.8%, 19.4%, 19.6%)" fill-opacity="1" d="M 1642.3 478.6 C 1642.3 462.1 1652.5 442.8 1664.9 435.6 L 1711.0 409.0 C 1715.9 406.1 1720.4 405.7 1724.1 407.2 C 1720.4 399.4 1712.8 396.9 1704.0 402.0 L 1657.9 428.6 C 1645.5 435.8 1635.4 455.1 1635.4 471.6 L 1635.4 578.2 C 1635.4 588.2 1639.1 594.9 1644.8 597.1 C 1643.2 593.9 1642.3 590.0 1642.3 585.2 L 1642.3 478.6 "/>
<path fill-rule="nonzero" fill="rgb(26.1%, 25.9%, 26.6%)" fill-opacity="1" d="M 1657.9 595.2 L 1704.0 568.6 C 1716.4 561.5 1726.5 542.1 1726.5 525.6 L 1726.5 419.0 C 1726.5 414.2 1725.6 410.3 1724.1 407.1 C 1720.4 405.7 1715.9 406.2 1711 409 L 1664.9 435.6 C 1652.5 442.8 1642.3 462.1 1642.3 478.6 L 1642.3 585.2 C 1642.3 590.0 1643.3 593.9 1644.8 597.1 C 1648.5 598.5 1653.0 598.1 1657.9 595.2 "/>
<path fill-rule="nonzero" fill="rgb(100%, 100%, 100%)" fill-opacity="1" d="M 1504.2 787.4 L 1525.7 775.1 L 1525.7 746.4 L 1504.2 758.8 L 1504.2 787.4 "/>
<path fill-rule="nonzero" fill="rgb(72.9%, 72.5%, 72.0%)" fill-opacity="1" d="M 1498.4 755.5 L 1504.2 758.8 L 1504.2 787.4 L 1498.4 784.1 L 1498.4 755.5 "/>
<path fill-rule="nonzero" fill="rgb(81.3%, 81.0%, 80.3%)" fill-opacity="1" d="M 1498.4 755.5 L 1519.9 743.1 L 1525.7 746.4 L 1504.2 758.8 L 1498.4 755.5 "/>
<path fill-rule="nonzero" fill="rgb(80.2%, 79.8%, 79.0%)" fill-opacity="1" d="M 120 701.1 L 285.3 796.5 L 285.3 1285.7 L 120 1190.4 L 120 701.1 "/>
<path fill-rule="nonzero" fill="rgb(53.9%, 54.4%, 54.4%)" fill-opacity="1" d="M 285.3 1285.7 L 295.3 1278.3 L 295.3 789.1 L 285.3 796.5 L 285.3 1285.7 "/>
<path fill-rule="nonzero" fill="rgb(94.0%, 94.0%, 93.9%)" fill-opacity="1" d="M 120 701.1 L 129.9 693.7 L 295.3 789.1 L 285.3 796.5 L 120 701.1 "/>
<path fill-rule="nonzero" fill="rgb(63.1%, 63.1%, 62.8%)" fill-opacity="1" d="M 268.1 1258.9 L 207.6 1225.2 L 207.6 769.9 L 268.1 803.7 L 268.1 1258.9 "/>
<path fill-rule="nonzero" fill="rgb(63.1%, 63.1%, 62.8%)" fill-opacity="1" d="M 193.5 1215.9 L 133 1182.2 L 133 726.9 L 193.5 760.7 L 193.5 1215.9 "/>
<path fill-rule="nonzero" fill="rgb(80.2%, 79.8%, 79.0%)" fill-opacity="1" d="M 289.2 799.4 L 454.4 894.9 L 454.4 1384.0 L 289.2 1288.6 L 289.2 799.4 "/>
<path fill-rule="nonzero" fill="rgb(53.9%, 54.4%, 54.4%)" fill-opacity="1" d="M 454.4 1384.0 L 464.4 1376.6 L 464.4 887.4 L 454.4 894.8 L 454.4 1384.0 "/>
<path fill-rule="nonzero" fill="rgb(94.0%, 94.0%, 93.9%)" fill-opacity="1" d="M 289.2 799.4 L 299.1 792.0 L 464.4 887.4 L 454.4 894.9 L 289.2 799.4 "/>
<path fill-rule="nonzero" fill="rgb(63.1%, 63.1%, 62.8%)" fill-opacity="1" d="M 437.3 1357.3 L 376.8 1323.5 L 376.8 868.2 L 437.3 902.0 L 437.3 1357.3 "/>
<path fill-rule="nonzero" fill="rgb(63.1%, 63.1%, 62.8%)" fill-opacity="1" d="M 362.6 1314.2 L 302.2 1280.5 L 302.2 825.2 L 362.6 859.0 L 362.6 1314.2 "/>
</svg>