<svg xmlns="http://www.w3.org/2000/svg" viewBox="3137.4 238.7 1762.6 1633.6" width="1763" height="1634">
<path fill-rule="nonzero" fill="rgb(98.2%, 95.9%, 96.8%)" fill-opacity="1" d="M 3631.6 1464.5 L 3723.8 1517.7 L 3946.8 1389.0 L 3854.6 1335.8 L 3631.6 1464.5 "/>
<path fill-rule="nonzero" fill="rgb(98.2%, 95.9%, 96.8%)" fill-opacity="1" d="M 3911.1 1303.2 L 4003.2 1356.4 L 4226.3 1227.7 L 4134.1 1174.4 L 3911.1 1303.2 "/>
<path fill-rule="nonzero" fill="rgb(98.2%, 95.9%, 96.8%)" fill-opacity="1" d="M 4190.4 1141.9 L 4282.6 1195.2 L 4505.5 1066.4 L 4413.3 1013.1 L 4190.4 1141.9 "/>
<path fill-rule="nonzero" fill="rgb(98.2%, 95.9%, 96.8%)" fill-opacity="1" d="M 4651.4 1085.7 L 4750.7 871.6 L 4379.9 929.0 Z M 4651.4 1085.7 "/>
<path fill-rule="nonzero" fill="rgb(12.5%, 7.7%, 6.6%)" fill-opacity="1" d="M 4552.4 702.9 L 4783.8 839.4 L 4783.8 799.2 L 4584.9 684.7 L 4552.4 702.9 "/>
<path fill-rule="nonzero" fill="rgb(12.5%, 7.7%, 6.6%)" fill-opacity="1" d="M 4723.9 803.9 L 4799.7 848.7 L 4869.0 848.7 L 4743.7 776.1 L 4723.9 803.9 "/>
<path fill-rule="nonzero" fill="rgb(17.2%, 16.6%, 16.6%)" fill-opacity="1" d="M 4225.3 1314.1 L 4296.6 1355.3 L 4296.6 1428.4 L 4225.3 1387.2 L 4225.3 1314.1 "/>
<path fill-rule="nonzero" fill="rgb(17.2%, 16.6%, 16.6%)" fill-opacity="1" d="M 4831.3 1019.6 C 4831.3 1067.2 4802.3 1122.7 4766.5 1143.4 C 4730.7 1164 4701.6 1142.2 4701.6 1094.3 C 4701.6 1046.6 4730.7 991.1 4766.5 970.5 C 4802.3 949.8 4831.3 971.8 4831.3 1019.6 "/>
<path fill-rule="nonzero" fill="rgb(17.2%, 16.6%, 16.6%)" fill-opacity="1" d="M 4773.2 1174.1 L 4726.2 1147.7 L 4810.0 967.7 L 4854.9 992.9 L 4773.2 1174.1 "/>
<path fill-rule="nonzero" fill="rgb(26.1%, 25.9%, 26.6%)" fill-opacity="1" d="M 4880 1046.6 C 4880 1094.4 4851.0 1149.9 4815.1 1170.6 C 4779.3 1191.3 4750.4 1169.3 4750.4 1121.6 C 4750.4 1073.8 4779.3 1018.3 4815.1 997.7 C 4851.0 977.0 4880 999 4880 1046.6 "/>
<path fill-rule="nonzero" fill="rgb(57.1%, 57.4%, 57.3%)" fill-opacity="1" d="M 4857.2 1061.3 C 4857.2 1092.3 4838.4 1128.3 4815.1 1141.7 C 4792.0 1155.2 4773.2 1140.9 4773.2 1110.0 C 4773.2 1079.0 4792.0 1043.0 4815.1 1029.6 C 4838.4 1016.1 4857.2 1030.4 4857.2 1061.3 "/>
<path fill-rule="nonzero" fill="rgb(100%, 100%, 100%)" fill-opacity="1" d="M 4845.3 1068.2 C 4845.3 1090.4 4831.8 1116.2 4815.1 1125.8 C 4798.5 1135.5 4784.9 1125.3 4784.9 1103.1 C 4784.9 1080.9 4798.5 1054.9 4815.1 1045.4 C 4831.8 1035.8 4845.3 1046.0 4845.3 1068.2 "/>
<path fill-rule="nonzero" fill="rgb(19.8%, 19.4%, 19.6%)" fill-opacity="1" d="M 4829.8 1077.2 C 4829.8 1087.9 4823.2 1100.4 4815.2 1105.2 C 4807.1 1109.8 4800.6 1104.8 4800.6 1094.1 C 4800.6 1083.4 4807.1 1070.9 4815.2 1066.2 C 4823.2 1061.5 4829.8 1066.5 4829.8 1077.2 "/>
<path fill-rule="nonzero" fill="rgb(19.8%, 19.4%, 19.6%)" fill-opacity="1" d="M 4818.0 1053.9 L 4815.1 1059.3 L 4812.4 1057.2 L 4815.1 1051.8 L 4818.0 1053.9 "/>
<path fill-rule="nonzero" fill="rgb(19.8%, 19.4%, 19.6%)" fill-opacity="1" d="M 4836.9 1053.9 L 4834.1 1059.3 L 4831.2 1057.2 L 4834.1 1051.8 L 4836.9 1053.9 "/>
<path fill-rule="nonzero" fill="rgb(19.8%, 19.4%, 19.6%)" fill-opacity="1" d="M 4800.6 1074.9 L 4797.8 1080.3 L 4795.0 1078.1 L 4797.8 1072.7 L 4800.6 1074.9 "/>
<path fill-rule="nonzero" fill="rgb(19.8%, 19.4%, 19.6%)" fill-opacity="1" d="M 4836.9 1093.2 L 4834.1 1098.6 L 4831.2 1096.5 L 4834.1 1091.1 L 4836.9 1093.2 "/>
<path fill-rule="nonzero" fill="rgb(19.8%, 19.4%, 19.6%)" fill-opacity="1" d="M 4800.6 1114.1 L 4797.8 1119.6 L 4795.0 1117.4 L 4797.8 1112 L 4800.6 1114.1 "/>
<path fill-rule="nonzero" fill="rgb(19.8%, 19.4%, 19.6%)" fill-opacity="1" d="M 4841.4 1072.1 L 4838.6 1077.5 L 4835.8 1075.3 L 4838.6 1069.9 L 4841.4 1072.1 "/>
<path fill-rule="nonzero" fill="rgb(19.8%, 19.4%, 19.6%)" fill-opacity="1" d="M 4795.0 1098.8 L 4792.2 1104.2 L 4789.4 1102.1 L 4792.2 1096.7 L 4795.0 1098.8 "/>
<path fill-rule="nonzero" fill="rgb(19.8%, 19.4%, 19.6%)" fill-opacity="1" d="M 4818.0 1114.1 L 4815.1 1119.6 L 4812.4 1117.4 L 4815.1 1112 L 4818.0 1114.1 "/>
<path fill-rule="nonzero" fill="rgb(17.2%, 16.6%, 16.6%)" fill-opacity="1" d="M 4679.1 1108.7 C 4679.1 1156.4 4650.1 1211.9 4614.2 1232.5 C 4578.5 1253.3 4549.4 1231.3 4549.4 1183.5 C 4549.4 1135.8 4578.5 1080.3 4614.2 1059.6 C 4650.1 1039.0 4679.1 1060.9 4679.1 1108.7 "/>
<path fill-rule="nonzero" fill="rgb(17.2%, 16.6%, 16.6%)" fill-opacity="1" d="M 4620.9 1263.3 L 4574.0 1236.9 L 4657.8 1056.9 L 4702.7 1082.0 L 4620.9 1263.3 "/>
<path fill-rule="nonzero" fill="rgb(26.1%, 25.9%, 26.6%)" fill-opacity="1" d="M 4727.8 1135.8 C 4727.8 1183.6 4698.9 1238.9 4662.9 1259.6 C 4627.1 1280.4 4598.2 1258.4 4598.2 1210.7 C 4598.2 1163.0 4627.1 1107.5 4662.9 1086.8 C 4698.9 1066.2 4727.8 1088.1 4727.8 1135.8 "/>
<path fill-rule="nonzero" fill="rgb(57.1%, 57.4%, 57.3%)" fill-opacity="1" d="M 4705.0 1150.5 C 4705.0 1181.4 4686.2 1217.4 4662.9 1230.8 C 4639.8 1244.3 4620.9 1230.0 4620.9 1199.1 C 4620.9 1168.2 4639.8 1132.2 4662.9 1118.7 C 4686.2 1105.3 4705.0 1119.5 4705.0 1150.5 "/>
<path fill-rule="nonzero" fill="rgb(100%, 100%, 100%)" fill-opacity="1" d="M 4693.1 1157.4 C 4693.1 1179.6 4679.6 1205.3 4662.9 1215.0 C 4646.3 1224.6 4632.8 1214.4 4632.8 1192.2 C 4632.8 1169.9 4646.3 1144.2 4662.9 1134.6 C 4679.6 1125.0 4693.1 1135.2 4693.1 1157.4 "/>
<path fill-rule="nonzero" fill="rgb(19.8%, 19.4%, 19.6%)" fill-opacity="1" d="M 4677.6 1166.3 C 4677.6 1177.0 4671.0 1189.7 4663.0 1194.2 C 4654.9 1198.8 4648.4 1193.9 4648.4 1183.1 C 4648.4 1172.4 4654.9 1160.0 4663.0 1155.4 C 4671.0 1150.6 4677.6 1155.6 4677.6 1166.3 "/>
<path fill-rule="nonzero" fill="rgb(19.8%, 19.4%, 19.6%)" fill-opacity="1" d="M 4665.8 1143.0 L 4663 1148.4 L 4660.1 1146.4 L 4663 1141.0 L 4665.8 1143.0 "/>
<path fill-rule="nonzero" fill="rgb(19.8%, 19.4%, 19.6%)" fill-opacity="1" d="M 4684.6 1143.0 L 4681.9 1148.4 L 4679.0 1146.4 L 4681.9 1141.0 L 4684.6 1143.0 "/>
<path fill-rule="nonzero" fill="rgb(19.8%, 19.4%, 19.6%)" fill-opacity="1" d="M 4648.4 1164.0 L 4645.6 1169.4 L 4642.8 1167.2 L 4645.6 1161.9 L 4648.4 1164.0 "/>
<path fill-rule="nonzero" fill="rgb(19.8%, 19.4%, 19.6%)" fill-opacity="1" d="M 4684.6 1182.3 L 4681.9 1187.7 L 4679.0 1185.5 L 4681.9 1180.3 L 4684.6 1182.3 "/>
<path fill-rule="nonzero" fill="rgb(19.8%, 19.4%, 19.6%)" fill-opacity="1" d="M 4648.4 1203.2 L 4645.6 1208.6 L 4642.8 1206.5 L 4645.6 1201.1 L 4648.4 1203.2 "/>
<path fill-rule="nonzero" fill="rgb(19.8%, 19.4%, 19.6%)" fill-opacity="1" d="M 4689.2 1161.2 L 4686.4 1166.6 L 4683.6 1164.4 L 4686.4 1159.0 L 4689.2 1161.2 "/>
<path fill-rule="nonzero" fill="rgb(19.8%, 19.4%, 19.6%)" fill-opacity="1" d="M 4642.8 1187.9 L 4640.0 1193.3 L 4637.2 1191.1 L 4640.0 1185.7 L 4642.8 1187.9 "/>
<path fill-rule="nonzero" fill="rgb(19.8%, 19.4%, 19.6%)" fill-opacity="1" d="M 4665.8 1203.2 L 4663 1208.6 L 4660.1 1206.5 L 4663 1201.1 L 4665.8 1203.2 "/>
<path fill-rule="nonzero" fill="rgb(38.9%, 39.5%, 40.2%)" fill-opacity="1" d="M 4166.9 1290.6 L 4453.7 1120.6 L 4583.3 1195.6 L 4296.6 1365.5 L 4166.9 1290.6 "/>
<path fill-rule="nonzero" fill="rgb(32.7%, 32.9%, 33.8%)" fill-opacity="1" d="M 4296.7 1365.0 L 4296.7 1428.3 L 4583.4 1258.8 L 4583.4 1195.5 L 4296.7 1365.0 "/>
<path fill-rule="nonzero" fill="rgb(53.0%, 53.4%, 53.5%)" fill-opacity="1" d="M 4296.7 1409.9 L 4296.7 1417.2 L 4571.4 1256.0 L 4571.4 1248.8 L 4296.7 1409.9 "/>
<path fill-rule="nonzero" fill="rgb(53.0%, 53.4%, 53.5%)" fill-opacity="1" d="M 4296.7 1394.3 L 4296.7 1401.4 L 4571.4 1240.4 L 4571.4 1233.1 L 4296.7 1394.3 "/>
<path fill-rule="nonzero" fill="rgb(17.2%, 16.6%, 16.6%)" fill-opacity="1" d="M 4236.7 1361.6 C 4236.7 1409.4 4207.8 1464.8 4172.0 1485.5 C 4136.1 1506.2 4107.1 1484.2 4107.1 1436.5 C 4107.1 1388.8 4136.1 1333.3 4172.0 1312.6 C 4207.8 1292.0 4236.7 1313.9 4236.7 1361.6 "/>
<path fill-rule="nonzero" fill="rgb(17.2%, 16.6%, 16.6%)" fill-opacity="1" d="M 4178.6 1516.3 L 4131.7 1489.8 L 4215.4 1309.9 L 4260.4 1335.1 L 4178.6 1516.3 "/>
<path fill-rule="nonzero" fill="rgb(26.1%, 25.9%, 26.6%)" fill-opacity="1" d="M 4285.5 1388.8 C 4285.5 1436.6 4256.5 1491.9 4220.7 1512.6 C 4184.8 1533.4 4155.8 1511.4 4155.8 1463.6 C 4155.8 1415.9 4184.8 1360.5 4220.7 1339.8 C 4256.5 1319.1 4285.5 1341.1 4285.5 1388.8 "/>
<path fill-rule="nonzero" fill="rgb(57.1%, 57.4%, 57.3%)" fill-opacity="1" d="M 4262.7 1403.5 C 4262.7 1434.4 4243.9 1470.4 4220.7 1483.8 C 4197.4 1497.2 4178.6 1482.9 4178.6 1452.1 C 4178.6 1421.0 4197.4 1385.0 4220.7 1371.8 C 4243.9 1358.3 4262.7 1372.5 4262.7 1403.5 "/>
<path fill-rule="nonzero" fill="rgb(100%, 100%, 100%)" fill-opacity="1" d="M 4250.8 1410.4 C 4250.8 1432.5 4237.2 1458.3 4220.6 1467.9 C 4204 1477.6 4190.4 1467.4 4190.4 1445.1 C 4190.4 1422.9 4204 1397.2 4220.6 1387.5 C 4237.2 1377.9 4250.8 1388.1 4250.8 1410.4 "/>
<path fill-rule="nonzero" fill="rgb(19.8%, 19.4%, 19.6%)" fill-opacity="1" d="M 4235.2 1419.3 C 4235.2 1430.0 4228.7 1442.5 4220.7 1447.2 C 4212.6 1451.8 4206.1 1446.9 4206.1 1436.1 C 4206.1 1425.4 4212.6 1413.0 4220.7 1408.4 C 4228.7 1403.6 4235.2 1408.6 4235.2 1419.3 "/>
<path fill-rule="nonzero" fill="rgb(19.8%, 19.4%, 19.6%)" fill-opacity="1" d="M 4223.4 1396.0 L 4220.7 1401.4 L 4217.8 1399.3 L 4220.7 1394.0 L 4223.4 1396.0 "/>
<path fill-rule="nonzero" fill="rgb(19.8%, 19.4%, 19.6%)" fill-opacity="1" d="M 4242.3 1396.0 L 4239.6 1401.4 L 4236.7 1399.3 L 4239.6 1394.0 L 4242.3 1396.0 "/>
<path fill-rule="nonzero" fill="rgb(19.8%, 19.4%, 19.6%)" fill-opacity="1" d="M 4206.1 1416.9 L 4203.3 1422.3 L 4200.4 1420.2 L 4203.3 1414.9 L 4206.1 1416.9 "/>
<path fill-rule="nonzero" fill="rgb(19.8%, 19.4%, 19.6%)" fill-opacity="1" d="M 4242.3 1435.3 L 4239.6 1440.7 L 4236.7 1438.6 L 4239.6 1433.1 L 4242.3 1435.3 "/>
<path fill-rule="nonzero" fill="rgb(19.8%, 19.4%, 19.6%)" fill-opacity="1" d="M 4206.1 1456.2 L 4203.3 1461.6 L 4200.4 1459.5 L 4203.3 1454.1 L 4206.1 1456.2 "/>
<path fill-rule="nonzero" fill="rgb(19.8%, 19.4%, 19.6%)" fill-opacity="1" d="M 4246.8 1414.1 L 4244.1 1419.5 L 4241.2 1417.4 L 4244.1 1412.0 L 4246.8 1414.1 "/>
<path fill-rule="nonzero" fill="rgb(19.8%, 19.4%, 19.6%)" fill-opacity="1" d="M 4200.5 1440.9 L 4197.7 1446.3 L 4194.9 1444.1 L 4197.7 1438.7 L 4200.5 1440.9 "/>
<path fill-rule="nonzero" fill="rgb(19.8%, 19.4%, 19.6%)" fill-opacity="1" d="M 4223.4 1456.2 L 4220.7 1461.6 L 4217.8 1459.5 L 4220.7 1454.1 L 4223.4 1456.2 "/>
<path fill-rule="nonzero" fill="rgb(17.2%, 16.6%, 16.6%)" fill-opacity="1" d="M 4101.7 1439.7 C 4101.7 1487.4 4072.8 1542.9 4036.9 1563.7 C 4001.2 1584.3 3972.1 1562.4 3972.1 1514.6 C 3972.1 1466.8 4001.2 1411.3 4036.9 1390.7 C 4072.8 1370.0 4101.7 1391.9 4101.7 1439.7 "/>
<path fill-rule="nonzero" fill="rgb(17.2%, 16.6%, 16.6%)" fill-opacity="1" d="M 4043.7 1594.4 L 3996.6 1567.9 L 4080.5 1387.9 L 4125.4 1413.1 L 4043.7 1594.4 "/>
<path fill-rule="nonzero" fill="rgb(26.1%, 25.9%, 26.6%)" fill-opacity="1" d="M 4150.5 1466.8 C 4150.5 1514.6 4121.5 1570.1 4085.6 1590.8 C 4049.9 1611.4 4020.8 1589.5 4020.8 1541.8 C 4020.8 1494.0 4049.9 1438.5 4085.6 1417.9 C 4121.5 1397.2 4150.5 1419.1 4150.5 1466.8 "/>
<path fill-rule="nonzero" fill="rgb(57.1%, 57.4%, 57.3%)" fill-opacity="1" d="M 4127.7 1481.6 C 4127.7 1512.6 4108.9 1548.6 4085.6 1561.8 C 4062.4 1575.3 4043.7 1561.1 4043.7 1530.1 C 4043.7 1499.2 4062.4 1463.2 4085.6 1449.7 C 4108.9 1436.4 4127.7 1450.6 4127.7 1481.6 "/>
<path fill-rule="nonzero" fill="rgb(100%, 100%, 100%)" fill-opacity="1" d="M 4115.8 1488.4 C 4115.8 1510.6 4102.2 1536.3 4085.6 1546.0 C 4069.0 1555.7 4055.5 1545.4 4055.5 1523.3 C 4055.5 1501.1 4069.0 1475.2 4085.6 1465.7 C 4102.2 1456.0 4115.8 1466.2 4115.8 1488.4 "/>
<path fill-rule="nonzero" fill="rgb(19.8%, 19.4%, 19.6%)" fill-opacity="1" d="M 4100.2 1497.4 C 4100.2 1508.1 4093.7 1520.6 4085.6 1525.3 C 4077.6 1530.0 4071.1 1525.1 4071.1 1514.3 C 4071.1 1503.6 4077.6 1491.0 4085.6 1486.4 C 4093.7 1481.7 4100.2 1486.7 4100.2 1497.4 "/>
<path fill-rule="nonzero" fill="rgb(19.8%, 19.4%, 19.6%)" fill-opacity="1" d="M 4088.4 1474.1 L 4085.6 1479.6 L 4082.8 1477.4 L 4085.6 1472 L 4088.4 1474.1 "/>
<path fill-rule="nonzero" fill="rgb(19.8%, 19.4%, 19.6%)" fill-opacity="1" d="M 4107.3 1474.1 L 4104.6 1479.6 L 4101.7 1477.4 L 4104.6 1472 L 4107.3 1474.1 "/>
<path fill-rule="nonzero" fill="rgb(19.8%, 19.4%, 19.6%)" fill-opacity="1" d="M 4071.0 1495.1 L 4068.3 1500.5 L 4065.4 1498.3 L 4068.3 1492.9 L 4071.0 1495.1 "/>
<path fill-rule="nonzero" fill="rgb(19.8%, 19.4%, 19.6%)" fill-opacity="1" d="M 4107.3 1513.4 L 4104.6 1518.7 L 4101.7 1516.7 L 4104.6 1511.3 L 4107.3 1513.4 "/>
<path fill-rule="nonzero" fill="rgb(19.8%, 19.4%, 19.6%)" fill-opacity="1" d="M 4071.0 1534.4 L 4068.3 1539.6 L 4065.4 1537.6 L 4068.3 1532.2 L 4071.0 1534.4 "/>
<path fill-rule="nonzero" fill="rgb(19.8%, 19.4%, 19.6%)" fill-opacity="1" d="M 4111.9 1492.3 L 4109.2 1497.5 L 4106.2 1495.5 L 4109.2 1490.1 L 4111.9 1492.3 "/>
<path fill-rule="nonzero" fill="rgb(19.8%, 19.4%, 19.6%)" fill-opacity="1" d="M 4065.4 1519.0 L 4062.7 1524.3 L 4059.8 1522.3 L 4062.7 1516.9 L 4065.4 1519.0 "/>
<path fill-rule="nonzero" fill="rgb(19.8%, 19.4%, 19.6%)" fill-opacity="1" d="M 4088.4 1534.4 L 4085.6 1539.6 L 4082.8 1537.6 L 4085.6 1532.2 L 4088.4 1534.4 "/>
<path fill-rule="nonzero" fill="rgb(13.9%, 13.3%, 13.1%)" fill-opacity="1" d="M 3785.5 1660.7 L 3735.9 1630.6 L 3702.3 1603.8 L 3731.6 1592.5 C 3734.0 1590.8 3798.4 1613.9 3785.5 1660.7 "/>
<path fill-rule="nonzero" fill="rgb(38.9%, 39.5%, 40.2%)" fill-opacity="1" d="M 3647.7 1588.8 L 3878.9 1456.5 L 4008.5 1531.4 L 3776.4 1664.4 L 3647.7 1588.8 "/>
<path fill-rule="nonzero" fill="rgb(32.7%, 32.9%, 33.8%)" fill-opacity="1" d="M 4008.6 1531.5 L 3775.2 1664.9 L 3775.2 1728.2 L 4008.6 1594.8 L 4008.6 1531.5 "/>
<path fill-rule="nonzero" fill="rgb(53.0%, 53.4%, 53.5%)" fill-opacity="1" d="M 3924.4 1625.3 L 3797.4 1698.2 L 3797.4 1705.3 L 3924.4 1632.5 L 3924.4 1625.3 "/>
<path fill-rule="nonzero" fill="rgb(53.0%, 53.4%, 53.5%)" fill-opacity="1" d="M 3924.4 1609.6 L 3797.4 1682.5 L 3797.4 1689.6 L 3924.4 1616.8 L 3924.4 1609.6 "/>
<path fill-rule="nonzero" fill="rgb(94.0%, 94.0%, 93.9%)" fill-opacity="1" d="M 3902.7 1014.9 L 4872.7 455.2 L 4532.3 258.7 L 3562.5 818.3 L 3902.7 1014.9 "/>
<path fill-rule="nonzero" fill="rgb(80.2%, 79.8%, 79.0%)" fill-opacity="1" d="M 3613.4 828.3 L 4548.5 289.3 L 4529.4 279.3 L 3594.2 818.3 L 3613.4 828.3 "/>
<path fill-rule="nonzero" fill="rgb(80.2%, 79.8%, 79.0%)" fill-opacity="1" d="M 3904.5 995.5 L 4839.7 456.5 L 4820.5 446.5 L 3885.4 985.5 L 3904.5 995.5 "/>
<path fill-rule="nonzero" fill="rgb(80.2%, 79.8%, 79.0%)" fill-opacity="1" d="M 3562.5 818.3 L 3562.5 1353.3 L 3902.7 1549.6 L 3902.7 1014.9 L 3562.5 818.3 "/>
<path fill-rule="nonzero" fill="rgb(100%, 100%, 100%)" fill-opacity="1" d="M 4456.5 781.4 L 4193.6 933.1 L 4153.9 984.9 L 4456.5 810.4 L 4456.5 781.4 "/>
<path fill-rule="nonzero" fill="rgb(100%, 100%, 100%)" fill-opacity="1" d="M 4456.5 730.3 L 4257.2 847.4 L 4217.5 899.2 L 4456.5 759.3 L 4456.5 730.3 "/>
<path fill-rule="nonzero" fill="rgb(63.1%, 63.1%, 62.8%)" fill-opacity="1" d="M 3902.7 1013.8 L 3902.7 1549.6 L 4872.7 990.0 L 4872.7 454.1 L 3902.7 1013.8 "/>
<path fill-rule="nonzero" fill="rgb(53.9%, 54.4%, 54.4%)" fill-opacity="1" d="M 3958.6 1013.4 L 3946.0 1020.7 L 3946.0 1488.8 L 3958.6 1481.5 L 3958.6 1013.4 "/>
<path fill-rule="nonzero" fill="rgb(53.9%, 54.4%, 54.4%)" fill-opacity="1" d="M 4014.9 980.9 L 4002.4 988.1 L 4002.4 1456.3 L 4014.9 1449.0 L 4014.9 980.9 "/>
<path fill-rule="nonzero" fill="rgb(53.9%, 54.4%, 54.4%)" fill-opacity="1" d="M 4207.6 869.3 L 4195.1 876.7 L 4195.1 1344.7 L 4207.6 1337.4 L 4207.6 869.3 "/>
<path fill-rule="nonzero" fill="rgb(53.9%, 54.4%, 54.4%)" fill-opacity="1" d="M 4264.0 836.8 L 4251.5 844.1 L 4251.5 1312.2 L 4264.0 1304.9 L 4264.0 836.8 "/>
<path fill-rule="nonzero" fill="rgb(53.9%, 54.4%, 54.4%)" fill-opacity="1" d="M 4324.0 803.1 L 4311.5 810.4 L 4311.5 1278.5 L 4324.0 1271.1 L 4324.0 803.1 "/>
<path fill-rule="nonzero" fill="rgb(53.9%, 54.4%, 54.4%)" fill-opacity="1" d="M 4380.4 770.7 L 4367.8 777.9 L 4367.8 1246.0 L 4380.4 1238.7 L 4380.4 770.7 "/>
<path fill-rule="nonzero" fill="rgb(53.9%, 54.4%, 54.4%)" fill-opacity="1" d="M 4441.5 733 L 4429 740.1 L 4429 1208.4 L 4441.5 1201.0 L 4441.5 733 "/>
<path fill-rule="nonzero" fill="rgb(53.9%, 54.4%, 54.4%)" fill-opacity="1" d="M 4497.9 700.5 L 4485.4 707.8 L 4485.4 1175.9 L 4497.9 1168.5 L 4497.9 700.5 "/>
<path fill-rule="nonzero" fill="rgb(53.9%, 54.4%, 54.4%)" fill-opacity="1" d="M 4728.4 566.4 L 4715.9 573.8 L 4715.9 1041.8 L 4728.4 1034.5 L 4728.4 566.4 "/>
<path fill-rule="nonzero" fill="rgb(53.9%, 54.4%, 54.4%)" fill-opacity="1" d="M 4784.8 534.0 L 4772.3 541.1 L 4772.3 1009.4 L 4784.8 1002.1 L 4784.8 534.0 "/>
<path fill-rule="nonzero" fill="rgb(17.2%, 16.6%, 16.6%)" fill-opacity="1" d="M 3733.0 1655.6 C 3733.0 1703.3 3704.0 1758.8 3668.3 1779.5 C 3632.4 1800.1 3603.4 1778.2 3603.4 1730.5 C 3603.4 1682.7 3632.4 1627.2 3668.3 1606.6 C 3704.0 1585.9 3733.0 1607.9 3733.0 1655.6 "/>
<path fill-rule="nonzero" fill="rgb(17.2%, 16.6%, 16.6%)" fill-opacity="1" d="M 3674.9 1810.2 L 3627.9 1783.8 L 3711.7 1603.8 L 3756.6 1628.9 L 3674.9 1810.2 "/>
<path fill-rule="nonzero" fill="rgb(26.1%, 25.9%, 26.6%)" fill-opacity="1" d="M 3781.8 1682.7 C 3781.8 1730.4 3752.7 1785.9 3717.0 1806.6 C 3681.1 1827.3 3652.1 1805.4 3652.1 1757.7 C 3652.1 1709.8 3681.1 1654.3 3717.0 1633.7 C 3752.7 1613.0 3781.8 1635.1 3781.8 1682.7 "/>
<path fill-rule="nonzero" fill="rgb(57.1%, 57.4%, 57.3%)" fill-opacity="1" d="M 3758.9 1697.4 C 3758.9 1728.4 3740.1 1764.4 3717.0 1777.8 C 3693.7 1791.2 3674.9 1776.9 3674.9 1746.0 C 3674.9 1715.0 3693.7 1679.0 3717.0 1665.6 C 3740.1 1652.2 3758.9 1666.5 3758.9 1697.4 "/>
<path fill-rule="nonzero" fill="rgb(100%, 100%, 100%)" fill-opacity="1" d="M 3747.1 1704.3 C 3747.1 1726.5 3733.5 1752.3 3716.9 1761.9 C 3700.3 1771.6 3686.7 1761.4 3686.7 1739.1 C 3686.7 1716.9 3700.3 1691.1 3716.9 1681.5 C 3733.5 1671.8 3747.1 1682.0 3747.1 1704.3 "/>
<path fill-rule="nonzero" fill="rgb(19.8%, 19.4%, 19.6%)" fill-opacity="1" d="M 3731.5 1713.3 C 3731.5 1724.0 3725 1736.4 3716.9 1741.2 C 3708.9 1745.8 3702.4 1740.9 3702.4 1730.1 C 3702.4 1719.4 3708.9 1706.9 3716.9 1702.3 C 3725 1697.6 3731.5 1702.6 3731.5 1713.3 "/>
<path fill-rule="nonzero" fill="rgb(19.8%, 19.4%, 19.6%)" fill-opacity="1" d="M 3719.7 1690 L 3717.0 1695.4 L 3714.1 1693.3 L 3717.0 1687.9 L 3719.7 1690 "/>
<path fill-rule="nonzero" fill="rgb(19.8%, 19.4%, 19.6%)" fill-opacity="1" d="M 3738.6 1690 L 3735.8 1695.4 L 3733.0 1693.3 L 3735.8 1687.9 L 3738.6 1690 "/>
<path fill-rule="nonzero" fill="rgb(19.8%, 19.4%, 19.6%)" fill-opacity="1" d="M 3702.3 1710.9 L 3699.6 1716.3 L 3696.7 1714.2 L 3699.6 1708.8 L 3702.3 1710.9 "/>
<path fill-rule="nonzero" fill="rgb(19.8%, 19.4%, 19.6%)" fill-opacity="1" d="M 3738.6 1729.3 L 3735.8 1734.7 L 3733.0 1732.5 L 3735.8 1727.1 L 3738.6 1729.3 "/>
<path fill-rule="nonzero" fill="rgb(19.8%, 19.4%, 19.6%)" fill-opacity="1" d="M 3702.3 1750.2 L 3699.6 1755.6 L 3696.7 1753.5 L 3699.6 1748.1 L 3702.3 1750.2 "/>
<path fill-rule="nonzero" fill="rgb(19.8%, 19.4%, 19.6%)" fill-opacity="1" d="M 3743.1 1708.1 L 3740.4 1713.5 L 3737.5 1711.4 L 3740.4 1706.0 L 3743.1 1708.1 "/>
<path fill-rule="nonzero" fill="rgb(19.8%, 19.4%, 19.6%)" fill-opacity="1" d="M 3696.7 1734.8 L 3694.0 1740.2 L 3691.1 1738.1 L 3694.0 1732.7 L 3696.7 1734.8 "/>
<path fill-rule="nonzero" fill="rgb(19.8%, 19.4%, 19.6%)" fill-opacity="1" d="M 3719.7 1750.2 L 3717.0 1755.6 L 3714.1 1753.5 L 3717.0 1748.1 L 3719.7 1750.2 "/>
<path fill-rule="nonzero" fill="rgb(63.1%, 63.1%, 62.8%)" fill-opacity="1" d="M 3707.6 1335.0 L 3511.3 1242.9 L 3511.3 1013.8 L 3267.6 1154.4 L 3678.7 1391.7 L 3707.6 1335.0 "/>
<path fill-rule="nonzero" fill="rgb(63.1%, 63.1%, 62.8%)" fill-opacity="1" d="M 3267.6 1154.4 L 3265.9 1155.5 C 3249.0 1164.3 3233.3 1185.2 3220.7 1209.3 L 3646.4 1455.1 L 3678.8 1391.7 L 3267.6 1154.4 "/>
<path fill-rule="nonzero" fill="rgb(63.1%, 63.1%, 62.8%)" fill-opacity="1" d="M 3849.6 1210.4 L 3604.2 1352.1 C 3566.8 1371.8 3534.9 1450.1 3532.0 1491.7 L 3519.4 1644.8 L 3519.4 1814.4 L 3621.5 1755.5 C 3629.9 1697.5 3665.3 1637.2 3707.6 1612.7 C 3749.8 1588.3 3785.2 1607.8 3793.6 1656.0 L 3849.6 1623.8 L 3849.6 1210.4 "/>
<path fill-rule="nonzero" fill="rgb(34.9%, 36.3%, 36.9%)" fill-opacity="1" d="M 3675.5 1638.6 L 3675.5 1311.8 L 3682.8 1307.7 L 3682.8 1638.6 L 3675.5 1638.6 "/>
<path fill-rule="nonzero" fill="rgb(63.1%, 63.1%, 62.8%)" fill-opacity="1" d="M 3707.6 1621.5 C 3669.1 1643.6 3637.2 1698.3 3629.6 1750.7 L 3621.5 1755.4 C 3629.9 1697.5 3665.3 1637.2 3707.6 1612.7 C 3749.9 1588.3 3785.2 1607.7 3793.6 1656.1 L 3785.5 1660.6 C 3778.0 1617 3745.9 1599.2 3707.6 1621.5 "/>
<path fill-rule="nonzero" fill="rgb(63.1%, 63.1%, 62.8%)" fill-opacity="1" d="M 3179.2 1448.4 L 3519.4 1644.8 L 3519.4 1814.4 L 3179.2 1618.0 L 3179.2 1448.4 "/>
<path fill-rule="nonzero" fill="rgb(39.1%, 39.8%, 42.0%)" fill-opacity="1" d="M 3490.2 1665.4 L 3519.4 1682.2 L 3519.4 1773.9 L 3490.2 1757.1 C 3481.1 1751.8 3473.7 1737.6 3473.7 1725.5 L 3473.7 1677.9 C 3473.7 1665.7 3481.1 1660.1 3490.2 1665.4 "/>
<path fill-rule="nonzero" fill="rgb(100%, 100%, 100%)" fill-opacity="1" d="M 3480.9 1685.7 C 3480.9 1697.2 3487.9 1710.5 3496.6 1715.6 C 3505.3 1720.5 3512.2 1715.2 3512.2 1703.7 C 3512.2 1692.2 3505.3 1678.9 3496.6 1673.9 C 3487.9 1668.9 3480.9 1674.1 3480.9 1685.7 "/>
<path fill-rule="nonzero" fill="rgb(100%, 100%, 100%)" fill-opacity="1" d="M 3487.9 1733.6 L 3500.0 1756.7 L 3512.3 1747.5 L 3500.0 1724.3 L 3487.9 1733.6 "/>
<path fill-rule="nonzero" fill="rgb(63.1%, 63.1%, 62.8%)" fill-opacity="1" d="M 3584.7 1764.4 L 3584.7 1797.2 C 3584.7 1814.4 3567.1 1824.3 3567.1 1824.3 L 3562.5 1785.7 L 3584.7 1764.4 "/>
<path fill-rule="nonzero" fill="rgb(80.2%, 79.8%, 79.0%)" fill-opacity="1" d="M 3520.6 1817.1 L 3519.7 1852.3 L 3460.9 1818.3 L 3461.4 1782.9 L 3520.6 1817.1 "/>
<path fill-rule="nonzero" fill="rgb(19.8%, 19.4%, 19.6%)" fill-opacity="1" d="M 3461.4 1782.9 L 3460.9 1818.2 L 3216.2 1676.7 L 3216.2 1641.8 L 3461.4 1782.9 "/>
<path fill-rule="nonzero" fill="rgb(100%, 100%, 100%)" fill-opacity="1" d="M 3257.4 1672.8 L 3412.4 1762.0 L 3411.8 1782.9 L 3257.4 1693.6 L 3257.4 1672.8 "/>
<path fill-rule="nonzero" fill="rgb(63.1%, 63.1%, 62.8%)" fill-opacity="1" d="M 3519.8 1817.6 L 3519.8 1852.3 L 3563.2 1827.2 L 3574.9 1810.8 L 3574.9 1785.7 L 3519.8 1817.6 "/>
<path fill-rule="nonzero" fill="rgb(94.0%, 94.0%, 93.9%)" fill-opacity="1" d="M 3584.7 1764.4 L 3519.7 1801.8 L 3179.2 1605.2 L 3179.3 1595.7 L 3157.4 1607.8 L 3519.7 1817.6 L 3564.6 1791.7 L 3582.1 1775.8 L 3584.7 1764.4 "/>
<path fill-rule="nonzero" fill="rgb(100%, 100%, 100%)" fill-opacity="1" d="M 3426.0 1780.4 L 3435.0 1797.8 L 3444.2 1791.0 L 3435.0 1773.6 L 3426.0 1780.4 "/>
<path fill-rule="nonzero" fill="rgb(93.8%, 18.7%, 44.0%)" fill-opacity="1" d="M 3605.6 1352.1 L 3849.6 1211.2 L 3509.4 1014.7 L 3265.3 1155.6 L 3605.6 1352.1 "/>
<path fill-rule="nonzero" fill="rgb(84.2%, 84.8%, 84.6%)" fill-opacity="1" d="M 3514.1 967.3 C 3503.1 972.2 3485.8 980.2 3471.9 986.8 C 3423.8 1010.2 3342.7 1051.8 3315.4 1080.1 C 3280.8 1115.6 3266.6 1151.1 3264.8 1155.9 L 3604.6 1352.7 C 3604.6 1352.7 3618.3 1314.6 3655.4 1276.4 C 3682.9 1248.1 3766.5 1209.1 3814.8 1185.9 C 3837.1 1175.0 3849.6 1165.5 3849.6 1165.5 L 3514.1 967.3 "/>
<path fill-rule="nonzero" fill="rgb(94.0%, 94.0%, 93.9%)" fill-opacity="1" d="M 3341.6 1059.0 C 3341.6 1059.0 3320.5 1068.8 3291.2 1108.9 L 3648.0 1313.6 L 3699.8 1262.0 L 3341.6 1059.0 "/>
<path fill-rule="nonzero" fill="rgb(65.9%, 66.9%, 67.2%)" fill-opacity="1" d="M 3801.4 1188.3 C 3753.1 1211.7 3682.9 1248.1 3655.4 1276.3 C 3618.3 1314.7 3604.7 1352.7 3604.7 1352.7 L 3849.5 1217.2 L 3849.5 1165.5 C 3838.4 1170.9 3815.0 1182.1 3801.4 1188.3 "/>
<path fill-rule="nonzero" fill="rgb(100%, 100%, 100%)" fill-opacity="1" d="M 3592.3 1745.7 L 3614.4 1732.9 L 3614.4 1703.4 L 3592.3 1716.2 L 3592.3 1745.7 "/>
<path fill-rule="nonzero" fill="rgb(72.9%, 72.5%, 72.0%)" fill-opacity="1" d="M 3586.3 1712.7 L 3592.3 1716.2 L 3592.3 1745.7 L 3586.3 1742.2 L 3586.3 1712.7 "/>
<path fill-rule="nonzero" fill="rgb(81.3%, 81.0%, 80.3%)" fill-opacity="1" d="M 3586.3 1712.7 L 3608.4 1700.1 L 3614.5 1703.4 L 3592.3 1716.2 L 3586.3 1712.7 "/>
<path fill-rule="nonzero" fill="rgb(100%, 100%, 100%)" fill-opacity="1" d="M 3805.9 1633.8 L 3828.1 1621.1 L 3828.1 1591.5 L 3805.9 1604.4 L 3805.9 1633.8 "/>
<path fill-rule="nonzero" fill="rgb(72.9%, 72.5%, 72.0%)" fill-opacity="1" d="M 3799.9 1600.9 L 3805.9 1604.4 L 3805.9 1633.8 L 3799.9 1630.4 L 3799.9 1600.9 "/>
<path fill-rule="nonzero" fill="rgb(81.3%, 81.0%, 80.3%)" fill-opacity="1" d="M 3799.9 1600.9 L 3822.1 1588.1 L 3828.1 1591.6 L 3805.9 1604.4 L 3799.9 1600.9 "/>
<path fill-rule="nonzero" fill="rgb(19.8%, 19.4%, 19.6%)" fill-opacity="1" d="M 3570.8 1463.2 C 3570.8 1452.2 3577.5 1439.1 3585.9 1434.3 L 3650.5 1397 L 3657.4 1395.4 L 3643.2 1390.3 L 3578.6 1427.7 C 3570.2 1432.5 3563.4 1445.4 3563.4 1456.7 L 3555.9 1575.8 L 3564.2 1588.9 L 3563.1 1582.4 L 3570.8 1463.2 "/>
<path fill-rule="nonzero" fill="rgb(26.1%, 25.9%, 26.6%)" fill-opacity="1" d="M 3570.9 1587.3 L 3643.1 1544.6 C 3651.6 1539.8 3658.4 1526.9 3658.4 1515.8 L 3658.4 1401.8 L 3657.3 1395.3 L 3650.5 1396.9 L 3585.8 1434.3 C 3577.5 1439.2 3570.7 1452.1 3570.7 1463.1 L 3563.1 1582.5 L 3564.2 1588.9 L 3570.9 1587.3 "/>
<path fill-rule="nonzero" fill="rgb(19.8%, 19.4%, 19.6%)" fill-opacity="1" d="M 3519.4 1667.8 L 3179.2 1471.3 L 3179.2 1448.4 L 3519.4 1644.8 L 3519.4 1667.8 "/>
<path fill-rule="nonzero" fill="rgb(19.8%, 19.4%, 19.6%)" fill-opacity="1" d="M 3464.8 1633.5 L 3367.1 1577.2 L 3233.4 1499.9 L 3235.7 1515.1 L 3462.4 1646.0 L 3464.8 1633.5 "/>
<path fill-rule="nonzero" fill="rgb(19.8%, 19.4%, 19.6%)" fill-opacity="1" d="M 3237.8 1527.8 L 3241.7 1552.5 L 3456.5 1676.5 L 3460.4 1656.3 L 3237.8 1527.8 "/>
<path fill-rule="nonzero" fill="rgb(19.8%, 19.4%, 19.6%)" fill-opacity="1" d="M 3246.3 1582.2 L 3246.6 1584.1 L 3451.6 1702.4 L 3451.9 1700.9 L 3454.5 1686.9 L 3243.7 1565.1 L 3246.3 1582.2 "/>
<path fill-rule="nonzero" fill="rgb(19.8%, 19.4%, 19.6%)" fill-opacity="1" d="M 3277.1 1627.1 C 3290.1 1636.0 3326.7 1656.8 3349.1 1669.0 C 3371.4 1682.5 3408.0 1704.1 3421.0 1710.3 C 3434.8 1716.8 3443.0 1717.7 3447.7 1711.6 L 3250.4 1597.7 C 3255.1 1609.1 3263.4 1617.8 3277.1 1627.1 "/>
<path fill-rule="nonzero" fill="rgb(26.1%, 25.9%, 26.6%)" fill-opacity="1" d="M 3243.7 1565.0 L 3454.5 1686.8 L 3456.5 1676.4 L 3241.7 1552.5 L 3243.7 1565.0 "/>
<path fill-rule="nonzero" fill="rgb(26.1%, 25.9%, 26.6%)" fill-opacity="1" d="M 3462.3 1646.0 L 3235.8 1515.1 L 3237.8 1527.8 L 3460.4 1656.3 L 3462.3 1646.0 "/>
<path fill-rule="nonzero" fill="rgb(26.1%, 25.9%, 26.6%)" fill-opacity="1" d="M 3250.4 1597.7 L 3447.7 1711.7 L 3451.6 1702.3 L 3246.6 1584.0 L 3250.4 1597.7 "/>
<path fill-rule="nonzero" fill="rgb(100%, 100%, 100%)" fill-opacity="1" d="M 3330.9 1573.3 C 3330.9 1584.9 3338.1 1598.2 3346.7 1603.2 C 3355.2 1608.2 3362.3 1602.9 3362.3 1591.4 C 3362.3 1579.9 3355.2 1566.6 3346.7 1561.5 C 3338.1 1556.6 3330.9 1561.8 3330.9 1573.3 "/>
<path fill-rule="nonzero" fill="rgb(26.1%, 25.9%, 26.6%)" fill-opacity="1" d="M 3195.6 1393.1 C 3195.6 1404.2 3202.5 1417.3 3210.7 1422.1 L 3492.4 1580.7 C 3500.7 1585.5 3507.5 1580.3 3507.5 1569.1 L 3518.2 1474.5 L 3206.7 1294.7 L 3195.6 1393.1 "/>
<path fill-rule="nonzero" fill="rgb(19.8%, 19.4%, 19.6%)" fill-opacity="1" d="M 3506.0 1419.5 L 3224.5 1260.9 C 3216.1 1256.0 3209.3 1261.2 3209.3 1272.3 L 3206.8 1294.7 L 3518.3 1474.5 L 3521.1 1448.4 C 3521.1 1437.2 3514.4 1424.2 3506.0 1419.5 "/>
<path fill-rule="nonzero" fill="rgb(100%, 100%, 100%)" fill-opacity="1" d="M 4820.4 996.7 L 4842.6 984.0 L 4842.6 954.4 L 4820.4 967.3 L 4820.4 996.7 "/>
<path fill-rule="nonzero" fill="rgb(72.9%, 72.5%, 72.0%)" fill-opacity="1" d="M 4814.4 963.8 L 4820.4 967.2 L 4820.4 996.7 L 4814.4 993.2 L 4814.4 963.8 "/>
<path fill-rule="nonzero" fill="rgb(81.3%, 81.0%, 80.3%)" fill-opacity="1" d="M 4814.4 963.8 L 4836.6 951.0 L 4842.6 954.4 L 4820.4 967.2 L 4814.4 963.8 "/>
<path fill-rule="nonzero" fill="rgb(100%, 100%, 100%)" fill-opacity="1" d="M 4095.6 1416.8 L 4117.7 1404.1 L 4117.7 1374.7 L 4095.6 1387.4 L 4095.6 1416.8 "/>
<path fill-rule="nonzero" fill="rgb(72.9%, 72.5%, 72.0%)" fill-opacity="1" d="M 4089.7 1384.0 L 4095.6 1387.4 L 4095.6 1416.8 L 4089.7 1413.3 L 4089.7 1384.0 "/>
<path fill-rule="nonzero" fill="rgb(81.3%, 81.0%, 80.3%)" fill-opacity="1" d="M 4089.7 1384.0 L 4111.8 1371.2 L 4117.8 1374.7 L 4095.6 1387.4 L 4089.7 1384.0 "/>
</svg>